<svg xmlns="http://www.w3.org/2000/svg" viewBox="0 0 32 32" fill="none">
  <!-- Background -->
  <rect width="32" height="32" rx="6" fill="url(#gradient)"/>
  
  <!-- Note pages -->
  <rect x="6" y="8" width="16" height="20" rx="2" fill="white" opacity="0.9"/>
  <rect x="8" y="6" width="16" height="20" rx="2" fill="white"/>
  
  <!-- Lines on the note -->
  <line x1="11" y1="11" x2="21" y2="11" stroke="#e5e7eb" stroke-width="0.5"/>
  <line x1="11" y1="13.5" x2="19" y2="13.5" stroke="#e5e7eb" stroke-width="0.5"/>
  <line x1="11" y1="16" x2="20" y2="16" stroke="#e5e7eb" stroke-width="0.5"/>
  <line x1="11" y1="18.5" x2="17" y2="18.5" stroke="#e5e7eb" stroke-width="0.5"/>
  
  <!-- Pen/Edit icon -->
  <g transform="translate(20, 20)">
    <path d="M3 7.5L3 6a1 1 0 0 1 1-1h1.5L7 6.5 5.5 8H4a1 1 0 0 1-1-1v-0.5z" fill="#8b5cf6"/>
    <path d="M6 5l1.5-1.5a1 1 0 0 1 1.414 0l0.586 0.586a1 1 0 0 1 0 1.414L8 6.5 6 5z" fill="#a855f7"/>
  </g>
  
  <!-- Gradient definition -->
  <defs>
    <linearGradient id="gradient" x1="0%" y1="0%" x2="100%" y2="100%">
      <stop offset="0%" style="stop-color:#8b5cf6;stop-opacity:1" />
      <stop offset="100%" style="stop-color:#a855f7;stop-opacity:1" />
    </linearGradient>
  </defs>
</svg>